<svg width="79" height="31" viewBox="0 0 79 31" fill="none" xmlns="http://www.w3.org/2000/svg">
<g clip-path="url(#clip0_7_101)">
<path d="M18.5792 0.584961C15.5331 0.584961 12.6118 1.79501 10.4579 3.94892L3.42841 10.9784C1.2745 13.1323 0.0644531 16.0536 0.0644531 19.0997C0.0644531 25.4429 5.20659 30.585 11.5498 30.585C14.5959 30.585 17.5172 29.3749 19.6711 27.221L24.5334 22.3587C24.5335 22.3588 24.5334 22.3586 24.5334 22.3587L38.7005 8.19156C39.7292 7.16287 41.1244 6.58496 42.5792 6.58496C45.0148 6.58496 47.0797 8.17237 47.7956 10.369L52.2667 5.89792C50.227 2.7033 46.6505 0.584961 42.5792 0.584961C39.5331 0.584961 36.6118 1.79501 34.4579 3.94892L15.4285 22.9784C14.3998 24.0071 13.0046 24.585 11.5498 24.585C8.52029 24.585 6.06445 22.1292 6.06445 19.0997C6.06445 17.6449 6.64236 16.2497 7.67105 15.221L14.7005 8.19156C15.7292 7.16287 17.1244 6.58496 18.5792 6.58496C21.0149 6.58496 23.0797 8.17244 23.7956 10.3692L28.2668 5.89803C26.2271 2.70336 22.6506 0.584961 18.5792 0.584961Z" fill="white"/>
<path d="M39.4291 22.9784C38.4004 24.0071 37.0052 24.585 35.5504 24.585C33.1151 24.585 31.0504 22.998 30.3343 20.8017L25.8633 25.2727C27.9031 28.4669 31.4794 30.585 35.5504 30.585C38.5965 30.585 41.5178 29.3749 43.6717 27.221L62.7011 8.19156C63.7298 7.16287 65.125 6.58496 66.5798 6.58496C69.6093 6.58496 72.0651 9.0408 72.0651 12.0703C72.0651 13.5251 71.4872 14.9203 70.4585 15.949L63.4291 22.9784C62.4004 24.0071 61.0052 24.585 59.5504 24.585C57.1149 24.585 55.0501 22.9977 54.3341 20.8012L49.8631 25.2723C51.9028 28.4668 55.4792 30.585 59.5504 30.585C62.5965 30.585 65.5178 29.3749 67.6717 27.221L74.7011 20.1916C76.855 18.0377 78.0651 15.1164 78.0651 12.0703C78.0651 5.7271 72.923 0.584961 66.5798 0.584961C63.5337 0.584961 60.6124 1.79501 58.4585 3.94892L39.4291 22.9784Z" fill="white"/>
</g>
<defs>
<clipPath id="clip0_7_101">
<rect width="78" height="30" fill="white" transform="translate(0.0644531 0.584961)"/>
</clipPath>
</defs>
</svg>
