<svg width="106" height="41" viewBox="0 0 106 41" fill="none" xmlns="http://www.w3.org/2000/svg">
<g clip-path="url(#clip0_7_105)">
<path d="M48.2266 35.823H50.961V25.5087H48.2266V35.823ZM48.2266 23.9002H50.961V21.4473H48.2266V23.9002Z" fill="white"/>
<path d="M52.7227 39.2011H55.4571V34.6572H55.4974C56.0804 35.5418 57.0254 36.1249 58.473 36.1249C61.127 36.1249 62.9365 34.0138 62.9365 30.6762C62.9365 27.4592 61.1873 25.2275 58.4529 25.2275C57.0455 25.2275 56.0804 25.891 55.4169 26.7957H55.3566V25.509H52.7227V39.2011ZM57.89 33.8529C56.2614 33.8529 55.3968 32.6265 55.3968 30.7566C55.3968 28.9069 56.0804 27.4391 57.7894 27.4391C59.4783 27.4391 60.1619 28.8063 60.1619 30.7566C60.1619 32.7069 59.2773 33.8529 57.89 33.8529Z" fill="white"/>
<path d="M68.3919 36.1249C70.9654 36.1249 72.7347 34.8783 72.7347 32.8074C72.7347 30.3947 70.8247 29.9122 69.0956 29.5503C67.6278 29.2487 66.2606 29.1682 66.2606 28.2836C66.2606 27.5397 66.9643 27.1375 68.03 27.1375C69.1961 27.1375 69.8998 27.5397 70.0204 28.6455H72.4935C72.2924 26.5746 70.7845 25.2275 68.0702 25.2275C65.7178 25.2275 63.868 26.2931 63.868 28.5248C63.868 30.7767 65.6776 31.2794 67.5273 31.6413C68.9347 31.9227 70.2416 32.0233 70.2416 33.0085C70.2416 33.7323 69.558 34.1947 68.3516 34.1947C67.1252 34.1947 66.2807 33.672 66.0998 32.4857H63.5664C63.7273 34.6773 65.3961 36.1249 68.3919 36.1249Z" fill="white"/>
<path d="M83.1153 35.8231V25.5088H80.3809V31.4601C80.3809 32.8273 79.5968 33.7924 78.31 33.7924C77.1439 33.7924 76.601 33.1289 76.601 31.9225V25.5088H73.8867V32.385C73.8867 34.6368 75.1735 36.1046 77.4656 36.1046C78.9132 36.1046 79.7174 35.5617 80.4212 34.6167H80.4815V35.8231H83.1153Z" fill="white"/>
<path d="M84.8828 35.8233H87.6173V29.8317C87.6173 28.4645 88.3612 27.5799 89.467 27.5799C90.4723 27.5799 91.0554 28.183 91.0554 29.3492V35.8233H93.7898V29.8317C93.7898 28.4645 94.4935 27.5799 95.6395 27.5799C96.6448 27.5799 97.2279 28.183 97.2279 29.3492V35.8233H99.9623V28.8868C99.9623 26.6349 98.7358 25.2275 96.5644 25.2275C95.2575 25.2275 94.1718 25.9111 93.4681 27.037H93.4279C92.9252 25.9513 91.8797 25.2275 90.5728 25.2275C89.1453 25.2275 88.14 25.9513 87.577 26.8963H87.5167V25.509H84.8828V35.8233Z" fill="white"/>
<path d="M48.2656 18.157H51V3.78125H48.2656V18.157Z" fill="white"/>
<path d="M57.6872 18.4589C60.8841 18.4589 63.0756 16.0864 63.0756 13.0102C63.0756 9.93401 60.8841 7.56152 57.6872 7.56152C54.4904 7.56152 52.2988 9.93401 52.2988 13.0102C52.2988 16.0864 54.4904 18.4589 57.6872 18.4589ZM57.6872 16.3679C55.9983 16.3679 55.0735 15.0208 55.0735 13.0102C55.0735 10.9996 55.9983 9.63243 57.6872 9.63243C59.356 9.63243 60.301 10.9996 60.301 13.0102C60.301 15.0208 59.356 16.3679 57.6872 16.3679Z" fill="white"/>
<path d="M68.8904 21.6759C70.4185 21.6759 71.7455 21.314 72.61 20.5097C73.374 19.806 73.8365 18.8208 73.8365 17.3732V7.843H71.2025V8.92872H71.1623C70.539 8.06416 69.5941 7.56152 68.3073 7.56152C65.6936 7.56152 63.8438 9.5319 63.8438 12.6081C63.8438 15.7245 66.0957 17.534 68.3878 17.534C69.6947 17.534 70.4788 17.0113 71.082 16.3277H71.1423V17.4536C71.1423 18.861 70.3984 19.6049 68.8502 19.6049C67.5835 19.6049 67.0005 19.1023 66.7793 18.4589H64.065C64.3465 20.4695 66.0756 21.6759 68.8904 21.6759ZM68.8502 15.3425C67.4428 15.3425 66.5178 14.3171 66.5178 12.5679C66.5178 10.8388 67.4428 9.75306 68.8301 9.75306C70.4788 9.75306 71.2829 11.0398 71.2829 12.5478C71.2829 14.0758 70.5793 15.3425 68.8502 15.3425Z" fill="white"/>
<path d="M80.4822 18.4589C83.679 18.4589 85.8706 16.0864 85.8706 13.0102C85.8706 9.93401 83.679 7.56152 80.4822 7.56152C77.2854 7.56152 75.0938 9.93401 75.0938 13.0102C75.0938 16.0864 77.2854 18.4589 80.4822 18.4589ZM80.4822 16.3679C78.7933 16.3679 77.8684 15.0208 77.8684 13.0102C77.8684 10.9996 78.7933 9.63243 80.4822 9.63243C82.151 9.63243 83.096 10.9996 83.096 13.0102C83.096 15.0208 82.151 16.3679 80.4822 16.3679Z" fill="white"/>
<path d="M88.2676 14.2167H100.09V11.8643H88.2676V14.2167Z" fill="white"/>
<path d="M100.957 23.7567C100.957 23.294 101.332 22.9189 101.795 22.9189H103.47C103.933 22.9189 104.308 23.294 104.308 23.7567C104.308 24.2193 103.933 24.5944 103.47 24.5944H101.795C101.332 24.5944 100.957 24.2193 100.957 23.7567Z" fill="white"/>
<path fill-rule="evenodd" clip-rule="evenodd" d="M20.6113 0.584961C31.657 0.584961 40.6113 9.53926 40.6113 20.585C40.6113 31.6307 31.657 40.585 20.6113 40.585C9.56563 40.585 0.611328 31.6307 0.611328 20.585C0.611328 9.53926 9.56563 0.584961 20.6113 0.584961ZM19.8884 2.08155C17.6068 2.40265 15.4342 4.23604 13.7477 7.30236C13.2585 8.19179 12.8171 9.17442 12.4324 10.2354C14.7256 9.65913 17.2447 9.31938 19.8884 9.26683V2.08155ZM10.7421 10.7158C11.2204 9.21454 11.8056 7.83336 12.4809 6.60561C13.3169 5.08555 14.3091 3.77291 15.427 2.76473C9.34812 4.53019 4.55655 9.32175 2.7911 15.4007C3.79927 14.2828 5.11192 13.2906 6.63198 12.4546C7.85973 11.7793 9.2409 11.1941 10.7421 10.7158ZM10.2617 12.4061C9.68549 14.6993 9.34575 17.2184 9.2932 19.8621H2.10791C2.42902 17.5804 4.26241 15.4078 7.32873 13.7214C8.21816 13.2322 9.20079 12.7908 10.2617 12.4061ZM10.7393 19.8621C10.799 16.977 11.2143 14.2684 11.9015 11.8752C14.2947 11.188 17.0034 10.7726 19.8884 10.7129V13.8358C18.8121 16.5912 16.6169 18.7862 13.8614 19.8621H10.7393ZM9.2932 21.3079H2.10791C2.42902 23.5896 4.26241 25.7621 7.32873 27.4486C8.21816 27.9378 9.20079 28.3792 10.2617 28.7639C9.68549 26.4707 9.34575 23.9516 9.2932 21.3079ZM11.9015 29.2948C11.2143 26.9016 10.799 24.193 10.7393 21.3079H13.8614C16.6169 22.3838 18.8122 24.5788 19.8884 27.3342V30.4571C17.0034 30.3974 14.2947 29.982 11.9015 29.2948ZM10.7421 30.4542C9.2409 29.9759 7.85973 29.3907 6.63198 28.7154C5.11192 27.8794 3.79927 26.8872 2.7911 25.7693C4.55655 31.8482 9.34812 36.6398 15.427 38.4052C14.3091 37.397 13.3169 36.0844 12.4809 34.5643C11.8056 33.3366 11.2204 31.9554 10.7421 30.4542ZM19.8884 39.0884C17.6068 38.7673 15.4342 36.9339 13.7477 33.8676C13.2585 32.9782 12.8171 31.9955 12.4324 30.9346C14.7256 31.5108 17.2447 31.8506 19.8884 31.9031V39.0884ZM25.7956 38.4052C26.9135 37.397 27.9057 36.0844 28.7418 34.5643C29.417 33.3366 30.0022 31.9554 30.4805 30.4542C31.9817 29.9759 33.3629 29.3907 34.5907 28.7154C36.1107 27.8794 37.4234 26.8872 38.4315 25.7693C36.6661 31.8482 31.8745 36.6398 25.7956 38.4052ZM28.7902 30.9346C28.4055 31.9955 27.9641 32.9782 27.4749 33.8676C25.7885 36.9339 23.6159 38.7673 21.3342 39.0884V31.9031C23.9779 31.8506 26.497 31.5108 28.7902 30.9346ZM30.9609 28.7639C32.0218 28.3792 33.0045 27.9378 33.8939 27.4486C36.9602 25.7621 38.7936 23.5896 39.1147 21.3079H31.9294C31.8769 23.9516 31.5371 26.4707 30.9609 28.7639ZM30.4834 21.3079C30.4237 24.193 30.0083 26.9016 29.3211 29.2948C26.9279 29.982 24.2193 30.3974 21.3342 30.4571V27.3365C22.4101 24.5801 24.6058 22.3841 27.3621 21.3079H30.4834ZM31.9294 19.8621H39.1147C38.7936 17.5804 36.9602 15.4078 33.8939 13.7214C33.0045 13.2322 32.0218 12.7908 30.9609 12.4061C31.5371 14.6993 31.8769 17.2184 31.9294 19.8621ZM29.3211 11.8752C30.0083 14.2684 30.4237 16.977 30.4834 19.8621H27.3621C24.6058 18.7859 22.4101 16.5899 21.3342 13.8335V10.7129C24.2193 10.7726 26.9279 11.188 29.3211 11.8752ZM30.4805 10.7158C31.9817 11.1941 33.3629 11.7793 34.5907 12.4546C36.1107 13.2906 37.4234 14.2828 38.4315 15.4007C36.6661 9.32175 31.8745 4.53019 25.7956 2.76473C26.9135 3.77291 27.9057 5.08555 28.7418 6.60561C29.417 7.83336 30.0022 9.21454 30.4805 10.7158ZM21.3342 2.08155C23.6159 2.40265 25.7885 4.23604 27.4749 7.30236C27.9641 8.1918 28.4055 9.17442 28.7902 10.2354C26.497 9.65913 23.9779 9.31938 21.3342 9.26683V2.08155Z" fill="white"/>
</g>
<defs>
<clipPath id="clip0_7_105">
<rect width="105" height="40" fill="white" transform="translate(0.0898438 0.584961)"/>
</clipPath>
</defs>
</svg>
