<svg id="圖層_1" data-name="圖層 1" xmlns="http://www.w3.org/2000/svg" viewBox="0 0 509.54 105.35"><defs><style>.cls-1{fill:none;}.cls-2{fill:#aa8c4a;}.cls-3{fill:#fff;}</style></defs><path class="cls-1" d="M214,46.83c-.18-1.54-.41-3-.71-4.55H196.55l13.14-11.2a52.8,52.8,0,0,0-3.86-7l-21.49,18.2h-9.08l27.07-22.94c-.82-1-1.68-1.95-2.58-2.89l-27,22.88V1.51c-1.33-.28-2.69-.51-4.06-.68v46Z"/><path class="cls-1" d="M168.7,104.57c1.37-.17,2.73-.4,4.06-.68V68.06l25.71,22.17a52.3,52.3,0,0,0,5.6-6.38L182.3,65h9.08l16,13.81q.87-1.51,1.65-3.09L196.55,65h16.34c.36-1.49.66-3,.89-4.54H168.7Z"/><path class="cls-1" d="M156.51.71c-1.37.14-2.73.34-4.07.59v38L124.91,15.91a53.24,53.24,0,0,0-4.89,5.7l24.32,20.67h-9.09L116.77,26.56c-.72,1.25-1.4,2.54-2,3.86l13.9,11.86H110.82c-.31,1.5-.54,3-.71,4.55h46.4Z"/><path class="cls-1" d="M152.45,104.11c1.34.24,2.69.44,4.06.59V60.5H110.35c.23,1.54.53,3,.89,4.54h17.41L115.49,76.49a51.91,51.91,0,0,0,4.76,7.61l22-19.06h9.09l-27.28,23.6c.69.73,1.39,1.43,2.12,2.12l26.24-22.7Z"/><path class="cls-2" d="M184.34,42.28l21.49-18.2a52.66,52.66,0,0,0-3.5-4.74L175.26,42.28Z"/><path class="cls-2" d="M182.3,65l21.77,18.81a51.92,51.92,0,0,0,3.29-5L191.38,65Z"/><path class="cls-2" d="M144.34,42.28,120,21.61a51.46,51.46,0,0,0-3.25,4.95l18.48,15.72Z"/><path class="cls-2" d="M142.28,65l-22,19.06a52,52,0,0,0,3.84,4.54L151.37,65Z"/><path class="cls-2" d="M199.75,16.45a52.21,52.21,0,0,0-27-14.94V39.33Z"/><path class="cls-2" d="M152.44,1.3a52.22,52.22,0,0,0-27.53,14.61l27.54,23.43Z"/><path class="cls-2" d="M213.32,42.28a52.4,52.4,0,0,0-3.63-11.2l-13.14,11.2Z"/><path class="cls-2" d="M209,75.76A52.28,52.28,0,0,0,212.89,65H196.55Z"/><path class="cls-2" d="M152.45,68.06l-26.24,22.7a52.18,52.18,0,0,0,26.24,13.35Z"/><path class="cls-2" d="M172.76,103.89a52.09,52.09,0,0,0,25.71-13.66L172.76,68.06Z"/><path class="cls-2" d="M111.24,65a52.38,52.38,0,0,0,4.25,11.45L128.65,65Z"/><path class="cls-2" d="M114.75,30.42a52.1,52.1,0,0,0-3.93,11.86h17.83Z"/><path class="cls-2" d="M156.51,104.7a53.75,53.75,0,0,0,5.56.29,51.88,51.88,0,0,0,6.63-.42V60.5h45.08a52.85,52.85,0,0,0,.58-7.8,54.27,54.27,0,0,0-.33-5.87H168.7V.83a51.88,51.88,0,0,0-6.63-.42,51.1,51.1,0,0,0-5.56.3V46.83h-46.4a51.83,51.83,0,0,0-.33,5.87,52.85,52.85,0,0,0,.57,7.8h46.16Z"/><path class="cls-3" d="M286.88,46.78a.37.37,0,0,0-.49-.17.36.36,0,0,0-.21.27L277.47,103a.88.88,0,0,1-.89.76l-16.41-.06a.7.7,0,0,1-.78-.73,22.6,22.6,0,0,1,.36-5.65q8.31-47.49,16.84-94.94A2.19,2.19,0,0,1,277.64.65a4.93,4.93,0,0,1,7,2.41q15.65,33.59,31.31,67a.42.42,0,0,0,.56.2.39.39,0,0,0,.2-.2l32-68.6a1.65,1.65,0,0,1,.74-.76,5.63,5.63,0,0,1,5.94.3,1.28,1.28,0,0,1,.55.84q12.06,67.46,17.21,97.78a14.84,14.84,0,0,1,0,3.27.58.58,0,0,1-.59.59q-4.72.34-15,.17c-3.11-.05-2.8-1.34-3.25-4.11q-4.24-26.48-8.31-52.84a.31.31,0,0,0-.35-.26.3.3,0,0,0-.24.18L319.94,104a1.29,1.29,0,0,1-.65.65,7.08,7.08,0,0,1-6,0,1.13,1.13,0,0,1-.59-.57Z"/><path class="cls-3" d="M482.82,85.56a.86.86,0,0,0-.78-.5H439.51a.81.81,0,0,0-.74.48c-2.32,5.19-4.9,12.91-8.23,17.38a1.07,1.07,0,0,1-.77.44,73.23,73.23,0,0,1-17,0,.61.61,0,0,1-.54-.6,11.83,11.83,0,0,1,1.19-5q21.25-46.12,42.69-92.15c1.63-3.51,2.65-6.65,6.84-5a2.29,2.29,0,0,1,1.22,1.17q20.65,45,41.24,89.68,2,4.43,3.89,9.36c.61,1.64.05,2.54-1.7,2.7a100.46,100.46,0,0,1-13.59.22c-3.35-.15-3.48-1.5-4.93-4.54Q485.86,92.36,482.82,85.56Z"/><path class="cls-3" d="M44.32,19.73q-.14,53.51,0,77.83a28.52,28.52,0,0,1-.47,5.55.76.76,0,0,1-.75.62H26.44a.81.81,0,0,1-.88-.67,12.86,12.86,0,0,1-.51-3.07q0-40.23,0-80.43a.51.51,0,0,0-.52-.51H1.7A1.59,1.59,0,0,1,.11,17.48L0,4.49c0-2,1-2.94,2.91-2.93l64.35.05a2,2,0,0,1,1.95,1.93l.09,13.12A2.06,2.06,0,0,1,67,19l-22.13.18A.49.49,0,0,0,44.32,19.73Z"/></svg>