<svg width="77" height="33" viewBox="0 0 77 33" fill="none" xmlns="http://www.w3.org/2000/svg">
<path d="M0.0644531 30.4803C3.27927 23.9826 5.91758 17.224 7.94995 10.2798H11.694C9.7155 17.2072 7.1627 23.9633 4.06137 30.4803H0.0644531ZM24.2626 1.29259L22.9504 5.579H38.8297L40.1419 1.29259H24.2626ZM12.0793 30.8948H16.5577C19.3666 26.2417 21.5939 21.272 23.1911 16.0937H19.2063C17.5517 21.3187 15.1434 26.2833 12.0552 30.8356L12.0793 30.8948ZM19.8925 9.86541L18.5682 14.2228H26.1647L21.9632 28.0174H19.2183L17.894 32.3393H25.0451L30.559 14.2228H37.9388L39.2751 9.86541H19.8925ZM16.5216 13.3111L17.87 8.89442H20.651L21.9752 4.56068H19.2183L20.4222 0.807129H15.8354L14.6315 4.56068H8.67225L7.348 8.89442H13.3674L6.26447 32.363H10.7309L14.9204 18.6039L16.4975 20.1314L18.0987 14.8741L16.5216 13.3111ZM31.209 16.2358C31.3243 21.2503 30.6253 26.2508 29.1384 31.0487H33.0992C34.5946 26.2444 35.405 21.2592 35.5069 16.2358H31.209ZM52.0724 0.972899H47.1967L47.3291 8.53921H52.2169L52.0724 0.972899ZM41.8755 10.9074L40.4669 15.549H43.8258L38.7093 32.363L47.3412 29.3318L48.9183 24.1336L45.4751 25.3177L49.8693 10.8955L41.8755 10.9074ZM52.8189 32.3393L58.7781 23.4232H53.9626L47.9431 32.3393H52.8189ZM58.5253 2.09778L52.9754 20.2853H70.5521L76.09 2.09778H58.5253ZM67.3377 15.7503H58.9707L61.7397 6.62098H70.1669L67.3859 15.7503M62.787 23.3876L63.3168 32.3038H68.1323L67.5906 23.3876H62.787Z" fill="white"/>
</svg>
